<?xml version="1.0" encoding="utf-8"?>
<!-- Generator: Adobe Illustrator 26.1.0, SVG Export Plug-In . SVG Version: 6.00 Build 0)  -->
<svg version="1.1" id="Layer_3" xmlns="http://www.w3.org/2000/svg" xmlns:xlink="http://www.w3.org/1999/xlink" x="0px" y="0px"
	 viewBox="0 0 1190.55 423.53" style="enable-background:new 0 0 1190.55 423.53;" xml:space="preserve">
<style type="text/css">
	.st0{fill:#BE1622;stroke:#C00D0D;stroke-miterlimit:10;}
	.st1{fill:none;stroke:#C00D0D;stroke-width:2;stroke-miterlimit:10;}
	.st2{fill:#BE1622;stroke:#C00D0D;stroke-width:2;stroke-miterlimit:10;}
	.st3{fill:none;stroke:#C00D0D;stroke-width:3;stroke-miterlimit:10;}
	.st4{fill:none;stroke:#C00D0D;stroke-width:1.5;stroke-miterlimit:10;}
</style>
<path class="st0" d="M517.68,113.32c0,0,23.34-33.13,92.61-33.13c68.52,0,92.99,33.13,92.99,33.13H517.68z"/>
<rect x="495.09" y="113.32" class="st0" width="230.4" height="8.66"/>
<rect x="499.98" y="121.98" class="st1" width="220.99" height="19.58"/>
<rect x="484.17" y="141.55" class="st1" width="251.48" height="37.65"/>
<rect x="399.37" y="179.2" class="st0" width="420.99" height="10.54"/>
<rect x="403.61" y="189.74" class="st1" width="409.98" height="24.56"/>
<rect x="484.17" y="141.55" class="st0" width="251.48" height="8.66"/>
<rect x="234.2" y="214.31" class="st2" width="753.03" height="5.93"/>
<rect x="240.13" y="220.23" class="st1" width="742.19" height="14.4"/>
<rect x="234.2" y="251.86" class="st2" width="750.68" height="4.89"/>
<rect x="241.16" y="234.63" class="st1" width="737.5" height="17.22"/>
<rect x="241.16" y="256.75" class="st2" width="15.25" height="7.15"/>
<rect x="241.16" y="355.39" class="st2" width="15.25" height="7.15"/>
<rect x="243.42" y="263.91" class="st2" width="10.73" height="90.54"/>
<rect x="295.56" y="256.75" class="st2" width="15.25" height="7.15"/>
<rect x="295.56" y="355.39" class="st2" width="15.25" height="7.15"/>
<rect x="297.82" y="263.91" class="st2" width="10.73" height="90.54"/>
<rect x="349.02" y="256.75" class="st2" width="15.25" height="7.15"/>
<rect x="349.02" y="355.39" class="st2" width="15.25" height="7.15"/>
<rect x="351.28" y="263.91" class="st2" width="10.73" height="90.54"/>
<rect x="404.36" y="256.75" class="st2" width="15.25" height="7.15"/>
<rect x="404.36" y="355.39" class="st2" width="15.25" height="7.15"/>
<rect x="406.62" y="263.91" class="st2" width="10.73" height="90.54"/>
<rect x="800.22" y="256.75" class="st2" width="15.25" height="7.15"/>
<rect x="800.22" y="355.39" class="st2" width="15.25" height="7.15"/>
<rect x="802.48" y="263.91" class="st2" width="10.73" height="90.54"/>
<rect x="854.62" y="256.75" class="st2" width="15.25" height="7.15"/>
<rect x="854.62" y="355.39" class="st2" width="15.25" height="7.15"/>
<rect x="856.88" y="263.91" class="st2" width="10.73" height="90.54"/>
<rect x="908.08" y="256.75" class="st2" width="15.25" height="7.15"/>
<rect x="908.08" y="355.39" class="st2" width="15.25" height="7.15"/>
<rect x="910.34" y="263.91" class="st2" width="10.73" height="90.54"/>
<rect x="963.42" y="256.75" class="st2" width="15.25" height="7.15"/>
<rect x="963.42" y="355.39" class="st2" width="15.25" height="7.15"/>
<rect x="965.68" y="263.91" class="st2" width="10.73" height="90.54"/>
<rect x="234.2" y="362.54" class="st2" width="750.68" height="9.04"/>
<rect x="441.25" y="234.63" class="st1" width="338.07" height="17.22"/>
<line class="st3" x1="444.27" y1="268.8" x2="444.27" y2="355.39"/>
<line class="st4" x1="437.68" y1="263.91" x2="437.68" y2="362.54"/>
<line class="st4" x1="451.42" y1="263.91" x2="451.42" y2="362.54"/>
<line class="st4" x1="474.67" y1="263.91" x2="474.67" y2="362.54"/>
<line class="st4" x1="488.41" y1="263.91" x2="488.41" y2="362.54"/>
<line class="st4" x1="511.75" y1="263.91" x2="511.75" y2="362.54"/>
<line class="st4" x1="525.49" y1="263.91" x2="525.49" y2="362.54"/>
<line class="st4" x1="548.74" y1="263.91" x2="548.74" y2="362.54"/>
<line class="st4" x1="562.48" y1="263.91" x2="562.48" y2="362.54"/>
<line class="st4" x1="584.74" y1="263.91" x2="584.74" y2="362.54"/>
<line class="st4" x1="598.48" y1="263.91" x2="598.48" y2="362.54"/>
<line class="st4" x1="621.72" y1="263.91" x2="621.72" y2="362.54"/>
<line class="st4" x1="635.47" y1="263.91" x2="635.47" y2="362.54"/>
<line class="st4" x1="658.34" y1="263.91" x2="658.34" y2="362.54"/>
<line class="st4" x1="672.08" y1="263.91" x2="672.08" y2="362.54"/>
<line class="st4" x1="695.32" y1="263.91" x2="695.32" y2="362.54"/>
<line class="st4" x1="709.07" y1="263.91" x2="709.07" y2="362.54"/>
<line class="st4" x1="732.12" y1="263.91" x2="732.12" y2="362.54"/>
<line class="st4" x1="745.87" y1="263.91" x2="745.87" y2="362.54"/>
<line class="st4" x1="769.11" y1="263.91" x2="769.11" y2="362.54"/>
<line class="st4" x1="782.85" y1="263.91" x2="782.85" y2="362.54"/>
<line class="st3" x1="481.54" y1="268.8" x2="481.54" y2="355.39"/>
<line class="st3" x1="517.87" y1="268.8" x2="517.87" y2="355.39"/>
<line class="st3" x1="555.14" y1="268.8" x2="555.14" y2="355.39"/>
<line class="st3" x1="591.47" y1="268.8" x2="591.47" y2="355.39"/>
<line class="st3" x1="628.74" y1="268.8" x2="628.74" y2="355.39"/>
<line class="st3" x1="665.07" y1="268.8" x2="665.07" y2="355.39"/>
<line class="st3" x1="702.34" y1="268.8" x2="702.34" y2="355.39"/>
<line class="st3" x1="739.04" y1="268.8" x2="739.04" y2="355.39"/>
<line class="st3" x1="776.31" y1="268.8" x2="776.31" y2="355.39"/>
<rect x="434.85" y="256.45" class="st3" width="6.21" height="6.21"/>
<rect x="448.31" y="256.45" class="st3" width="6.21" height="6.21"/>
<rect x="471.7" y="256.45" class="st3" width="6.21" height="6.21"/>
<rect x="485.16" y="256.45" class="st3" width="6.21" height="6.21"/>
<rect x="508.64" y="256.45" class="st3" width="6.21" height="6.21"/>
<rect x="522.1" y="256.45" class="st3" width="6.21" height="6.21"/>
<rect x="545.49" y="256.45" class="st3" width="6.21" height="6.21"/>
<rect x="558.95" y="256.45" class="st3" width="6.21" height="6.21"/>
<rect x="581.63" y="256.45" class="st3" width="6.21" height="6.21"/>
<rect x="595.09" y="256.45" class="st3" width="6.21" height="6.21"/>
<rect x="618.9" y="256.45" class="st3" width="6.21" height="6.21"/>
<rect x="632.36" y="256.45" class="st3" width="6.21" height="6.21"/>
<rect x="655.23" y="256.45" class="st3" width="6.21" height="6.21"/>
<rect x="668.69" y="256.45" class="st3" width="6.21" height="6.21"/>
<rect x="692.5" y="256.45" class="st3" width="6.21" height="6.21"/>
<rect x="705.96" y="256.45" class="st3" width="6.21" height="6.21"/>
<rect x="729.02" y="256.45" class="st3" width="6.21" height="6.21"/>
<rect x="742.48" y="256.45" class="st3" width="6.21" height="6.21"/>
<rect x="766.29" y="256.45" class="st3" width="6.21" height="6.21"/>
<rect x="779.75" y="256.45" class="st3" width="6.21" height="6.21"/>
<rect x="595.09" y="156.61" class="st1" width="32.14" height="15.81"/>
<rect x="934.05" y="299.67" class="st4" width="21.84" height="62.87"/>
<rect x="879.18" y="299.67" class="st4" width="21.84" height="62.87"/>
<rect x="825.25" y="299.67" class="st4" width="21.84" height="62.87"/>
<rect x="373.4" y="299.67" class="st4" width="21.84" height="62.87"/>
<rect x="373.4" y="263.91" class="st4" width="21.84" height="24.46"/>
<rect x="319" y="263.91" class="st4" width="21.84" height="24.46"/>
<rect x="265.07" y="263.91" class="st4" width="21.84" height="24.46"/>
<rect x="319" y="299.67" class="st4" width="21.84" height="62.87"/>
<rect x="265.07" y="299.67" class="st4" width="21.84" height="62.87"/>
<rect x="431.84" y="217.27" class="st4" width="355.76" height="10.16"/>
<rect x="879.18" y="263.91" class="st4" width="21.84" height="25.6"/>
<rect x="932.45" y="263.91" class="st4" width="21.84" height="25.6"/>
<rect x="825.25" y="263.91" transform="matrix(-1 -1.224647e-16 1.224647e-16 -1 1672.3425 553.4106)" class="st4" width="21.84" height="25.6"/>
</svg>
